<svg xmlns="http://www.w3.org/2000/svg" xmlns:xlink="http://www.w3.org/1999/xlink" width="2000" zoomAndPan="magnify" viewBox="0 0 1500 1499.999933" height="2000" preserveAspectRatio="xMidYMid meet" version="1.0"><defs><clipPath id="0cd66cdf93"><path d="M 310.5 150 L 1189.5 150 L 1189.5 1350 L 310.5 1350 Z M 310.5 150 " clip-rule="nonzero"/></clipPath></defs><rect x="-150" width="1800" fill="#ffffff" y="-149.999993" height="1799.99992" fill-opacity="1"/><rect x="-150" width="1800" fill="#ffffff" y="-149.999993" height="1799.99992" fill-opacity="1"/><g clip-path="url(#0cd66cdf93)"><path fill="#00cc00" d="M 1189.246094 440.675781 L 521.691406 440.675781 L 521.691406 162.265625 C 521.691406 155.515625 527.207031 150 533.957031 150 L 856.578125 150 C 1025.980469 150 1167.097656 277.121094 1189.246094 440.675781 Z M 822.824219 1020.050781 L 830.109375 907.378906 C 830.070312 900.628906 824.550781 895.113281 817.800781 895.152344 L 539.394531 896.058594 L 523.625 1349.835938 C 687.632812 1331.105469 823.398438 1189.449219 822.824219 1020.050781 Z M 310.550781 813.230469 L 910.878906 813.230469 C 1064.632812 813.230469 1189.285156 688.578125 1189.285156 534.824219 C 1189.285156 528.070312 1183.769531 522.554688 1177.019531 522.554688 L 643.214844 522.554688 C 473.816406 522.554688 332.738281 649.675781 310.550781 813.230469 Z M 310.550781 813.230469 " fill-opacity="1" fill-rule="nonzero"/></g></svg>