<svg xmlns="http://www.w3.org/2000/svg" xmlns:xlink="http://www.w3.org/1999/xlink" width="2000" zoomAndPan="magnify" viewBox="0 0 1500 1499.999933" height="2000" preserveAspectRatio="xMidYMid meet" version="1.0"><defs><clipPath id="e44c6ca0c6"><path d="M 145.605469 150 L 1354.605469 150 L 1354.605469 1350 L 145.605469 1350 Z M 145.605469 150 " clip-rule="nonzero"/></clipPath></defs><rect x="-150" width="1800" fill="#ffffff" y="-149.999993" height="1799.99992" fill-opacity="1"/><rect x="-150" width="1800" fill="#ffffff" y="-149.999993" height="1799.99992" fill-opacity="1"/><g clip-path="url(#e44c6ca0c6)"><path fill="#00cc00" d="M 1354.292969 755.054688 C 1354.292969 836.609375 1338.292969 915.75 1306.761719 990.328125 C 1276.3125 1062.292969 1232.75 1126.9375 1177.277344 1182.40625 C 1121.808594 1237.878906 1057.1875 1281.441406 985.199219 1311.890625 C 944.816406 1328.976562 903.074219 1341.476562 860.351562 1349.363281 L 860.351562 1180.730469 C 1049.546875 1131.621094 1189.628906 959.3125 1189.628906 754.980469 C 1189.628906 512.53125 992.375 315.199219 749.925781 315.199219 L 310.246094 315.199219 L 310.246094 755.054688 C 310.246094 893.488281 374.566406 1017.175781 474.882812 1097.84375 L 474.882812 479.816406 L 749.925781 479.816406 C 787.027344 479.816406 823.050781 487.1875 857.023438 501.5625 C 889.789062 515.417969 919.199219 535.335938 944.421875 560.558594 C 969.667969 585.804688 989.464844 615.191406 1003.34375 647.957031 C 1017.71875 681.929688 1024.992188 717.949219 1024.992188 755.054688 C 1024.992188 792.160156 1017.71875 828.179688 1003.34375 862.152344 C 989.488281 894.917969 969.667969 924.328125 944.421875 949.550781 C 920.039062 973.933594 891.761719 993.238281 860.324219 1007.019531 L 860.324219 755.84375 C 860.324219 755.84375 860.324219 755.203125 860.324219 754.882812 C 860.324219 694.011719 810.796875 644.480469 749.925781 644.480469 L 639.523438 644.480469 L 639.523438 1349.363281 C 596.796875 1341.476562 555.058594 1328.976562 514.675781 1311.890625 C 501.140625 1306.171875 487.875 1299.984375 474.882812 1293.351562 C 418.722656 1264.652344 367.664062 1227.476562 322.597656 1182.40625 C 267.125 1126.9375 223.5625 1062.316406 193.113281 990.328125 C 161.605469 915.75 145.605469 836.609375 145.605469 755.054688 L 145.605469 150.535156 L 749.949219 150.535156 C 831.503906 150.535156 910.644531 166.609375 985.222656 198.144531 C 1057.1875 228.589844 1121.808594 272.230469 1177.304688 327.726562 C 1232.773438 383.195312 1276.339844 447.816406 1306.785156 519.804688 C 1338.292969 594.359375 1354.292969 673.5 1354.292969 755.054688 Z M 1354.292969 755.054688 " fill-opacity="1" fill-rule="nonzero"/></g></svg>